REM MD5 679fdc7d42fb03ff8c3449ddd3ccd4bb
FILE "Rescue Heroes - Molten Menace (Europe).bin" BINARY
  TRACK 01 MODE2/2352
    INDEX 01 00:00:00
  TRACK 02 AUDIO
    INDEX 00 21:30:20
    INDEX 01 21:32:20
  TRACK 03 AUDIO
    INDEX 00 22:26:57
    INDEX 01 22:28:57
  TRACK 04 AUDIO
    INDEX 00 22:33:54
    INDEX 01 22:35:54
  TRACK 05 AUDIO
    INDEX 00 24:58:26
    INDEX 01 25:00:26
  TRACK 06 AUDIO
    INDEX 00 25:06:60
    INDEX 01 25:08:60
  TRACK 07 AUDIO
    INDEX 00 27:46:03
    INDEX 01 27:48:03
  TRACK 08 AUDIO
    INDEX 00 27:53:27
    INDEX 01 27:55:27
  TRACK 09 AUDIO
    INDEX 00 30:25:52
    INDEX 01 30:27:52
  TRACK 10 AUDIO
    INDEX 00 30:32:62
    INDEX 01 30:34:62
  TRACK 11 AUDIO
    INDEX 00 32:00:37
    INDEX 01 32:02:37
  TRACK 12 AUDIO
    INDEX 00 32:11:36
    INDEX 01 32:13:36
  TRACK 13 AUDIO
    INDEX 00 34:28:63
    INDEX 01 34:30:63
  TRACK 14 AUDIO
    INDEX 00 34:35:65
    INDEX 01 34:37:65
  TRACK 15 AUDIO
    INDEX 00 35:53:19
    INDEX 01 35:55:19
  TRACK 16 AUDIO
    INDEX 00 36:04:23
    INDEX 01 36:06:23
  TRACK 17 AUDIO
    INDEX 00 36:12:21
    INDEX 01 36:14:21
  TRACK 18 AUDIO
    INDEX 00 36:31:66
    INDEX 01 36:33:66
  TRACK 19 AUDIO
    INDEX 00 36:45:06
    INDEX 01 36:47:06
  TRACK 20 AUDIO
    INDEX 00 36:59:73
    INDEX 01 37:01:73
  TRACK 21 AUDIO
    INDEX 00 37:08:01
    INDEX 01 37:10:01
  TRACK 22 AUDIO
    INDEX 00 37:16:08
    INDEX 01 37:18:08
  TRACK 23 AUDIO
    INDEX 00 37:28:11
    INDEX 01 37:30:11
  TRACK 24 AUDIO
    INDEX 00 37:44:17
    INDEX 01 37:46:17
  TRACK 25 AUDIO
    INDEX 00 37:55:55
    INDEX 01 37:57:55
  TRACK 26 AUDIO
    INDEX 00 38:05:51
    INDEX 01 38:07:51
  TRACK 27 AUDIO
    INDEX 00 38:15:32
    INDEX 01 38:17:32
  TRACK 28 AUDIO
    INDEX 00 38:23:57
    INDEX 01 38:25:57
  TRACK 29 AUDIO
    INDEX 00 38:31:03
    INDEX 01 38:33:03
  TRACK 30 AUDIO
    INDEX 00 38:45:64
    INDEX 01 38:47:64
  TRACK 31 AUDIO
    INDEX 00 38:56:24
    INDEX 01 38:58:24
  TRACK 32 AUDIO
    INDEX 00 39:05:39
    INDEX 01 39:07:39
  TRACK 33 AUDIO
    INDEX 00 39:21:48
    INDEX 01 39:23:48
  TRACK 34 AUDIO
    INDEX 00 39:44:44
    INDEX 01 39:46:44
  TRACK 35 AUDIO
    INDEX 00 39:52:58
    INDEX 01 39:54:58
  TRACK 36 AUDIO
    INDEX 00 40:02:65
    INDEX 01 40:04:65
  TRACK 37 AUDIO
    INDEX 00 40:10:67
    INDEX 01 40:12:67
  TRACK 38 AUDIO
    INDEX 00 40:24:01
    INDEX 01 40:26:01
  TRACK 39 AUDIO
    INDEX 00 40:37:03
    INDEX 01 40:39:03
  TRACK 40 AUDIO
    INDEX 00 40:44:35
    INDEX 01 40:46:35
  TRACK 41 AUDIO
    INDEX 00 40:51:58
    INDEX 01 40:53:58
  TRACK 42 AUDIO
    INDEX 00 41:08:23
    INDEX 01 41:10:23
  TRACK 43 AUDIO
    INDEX 00 41:24:41
    INDEX 01 41:26:41
  TRACK 44 AUDIO
    INDEX 00 41:35:26
    INDEX 01 41:37:26
  TRACK 45 AUDIO
    INDEX 00 41:43:34
    INDEX 01 41:45:34
  TRACK 46 AUDIO
    INDEX 00 41:52:40
    INDEX 01 41:54:40
  TRACK 47 AUDIO
    INDEX 00 42:00:43
    INDEX 01 42:02:43
  TRACK 48 AUDIO
    INDEX 00 42:13:21
    INDEX 01 42:15:21
  TRACK 49 AUDIO
    INDEX 00 42:24:52
    INDEX 01 42:26:52
  TRACK 50 AUDIO
    INDEX 00 42:40:24
    INDEX 01 42:42:24
  TRACK 51 AUDIO
    INDEX 00 42:48:65
    INDEX 01 42:50:65
  TRACK 52 AUDIO
    INDEX 00 42:59:50
    INDEX 01 43:01:50
  TRACK 53 AUDIO
    INDEX 00 43:06:53
    INDEX 01 43:08:53
  TRACK 54 AUDIO
    INDEX 00 43:13:56
    INDEX 01 43:15:56
  TRACK 55 AUDIO
    INDEX 00 43:20:58
    INDEX 01 43:22:58
  TRACK 56 AUDIO
    INDEX 00 43:27:61
    INDEX 01 43:29:61
  TRACK 57 AUDIO
    INDEX 00 43:35:64
    INDEX 01 43:37:64
  TRACK 58 AUDIO
    INDEX 00 43:43:66
    INDEX 01 43:45:66
  TRACK 59 AUDIO
    INDEX 00 43:51:68
    INDEX 01 43:53:68
  TRACK 60 AUDIO
    INDEX 00 44:00:02
    INDEX 01 44:02:02
  TRACK 61 AUDIO
    INDEX 00 44:07:08
    INDEX 01 44:09:08
  TRACK 62 AUDIO
    INDEX 00 44:15:19
    INDEX 01 44:17:19
  TRACK 63 AUDIO
    INDEX 00 44:22:21
    INDEX 01 44:24:21
  TRACK 64 AUDIO
    INDEX 00 44:30:29
    INDEX 01 44:32:29
  TRACK 65 AUDIO
    INDEX 00 44:38:31
    INDEX 01 44:40:31
  TRACK 66 AUDIO
    INDEX 00 44:45:33
    INDEX 01 44:47:33
  TRACK 67 AUDIO
    INDEX 00 44:52:35
    INDEX 01 44:54:35
  TRACK 68 AUDIO
    INDEX 00 44:59:40
    INDEX 01 45:01:40
  TRACK 69 AUDIO
    INDEX 00 45:06:48
    INDEX 01 45:08:48
  TRACK 70 AUDIO
    INDEX 00 45:14:52
    INDEX 01 45:16:52
  TRACK 71 AUDIO
    INDEX 00 45:21:54
    INDEX 01 45:23:54
  TRACK 72 AUDIO
    INDEX 00 45:28:59
    INDEX 01 45:30:59
  TRACK 73 AUDIO
    INDEX 00 45:35:61
    INDEX 01 45:37:61
  TRACK 74 AUDIO
    INDEX 00 45:43:65
    INDEX 01 45:45:65
  TRACK 75 AUDIO
    INDEX 00 45:52:67
    INDEX 01 45:54:67
  TRACK 76 AUDIO
    INDEX 00 46:00:74
    INDEX 01 46:02:74
  TRACK 77 AUDIO
    INDEX 00 46:08:01
    INDEX 01 46:10:01
  TRACK 78 AUDIO
    INDEX 00 46:15:07
    INDEX 01 46:17:07
  TRACK 79 AUDIO
    INDEX 00 46:23:10
    INDEX 01 46:25:10
  TRACK 80 AUDIO
    INDEX 00 46:31:15
    INDEX 01 46:33:15
  TRACK 81 AUDIO
    INDEX 00 46:38:29
    INDEX 01 46:40:29
  TRACK 82 AUDIO
    INDEX 00 46:45:37
    INDEX 01 46:47:37
  TRACK 83 AUDIO
    INDEX 00 46:52:39
    INDEX 01 46:54:39
  TRACK 84 AUDIO
    INDEX 00 47:00:45
    INDEX 01 47:02:45
  TRACK 85 AUDIO
    INDEX 00 47:08:48
    INDEX 01 47:10:48
  TRACK 86 AUDIO
    INDEX 00 47:15:51
    INDEX 01 47:17:51
  TRACK 87 AUDIO
    INDEX 00 47:22:53
    INDEX 01 47:24:53
  TRACK 88 AUDIO
    INDEX 00 47:30:55
    INDEX 01 47:32:55
REM LEADOUT 50:34:13
